<?xml version="1.0" encoding="UTF-8"?><svg id="Ebene_1" xmlns="http://www.w3.org/2000/svg" viewBox="0 0 20 19"><defs><style>.cls-1{fill:#5c7ad9;}</style></defs><path class="cls-1" d="M17,4h-3v-1c0-1.66-1.34-3-3-3h-2c-1.66,0-3,1.34-3,3v1H3c-1.66,0-3,1.34-3,3v9c0,1.66,1.34,3,3,3h14c1.66,0,3-1.34,3-3V7c0-1.66-1.34-3-3-3Zm-9-1c0-.55,.45-1,1-1h2c.55,0,1,.45,1,1v1h-4v-1Zm10,13c0,.55-.45,1-1,1H3c-.55,0-1-.45-1-1v-5.5c2.55,1.01,5.26,1.53,8,1.53,2.74,0,5.45-.52,8-1.53v5.5Zm0-7.69c-5.1,2.24-10.9,2.24-16,0v-1.31c0-.55,.45-1,1-1h14c.55,0,1,.45,1,1v1.31Z"/></svg>